<svg width="13" height="13" viewBox="0 0 15 15" xmlns="http://www.w3.org/2000/svg">
<path d="M12.02 1.58H9.5V0.62C9.5 0.554 9.446 0.5 9.38 0.5H8.54C8.474 0.5 8.42 0.554 8.42 0.62V1.58H4.58V0.62C4.58 0.554 4.526 0.5 4.46 0.5H3.62C3.554 0.5 3.5 0.554 3.5 0.62V1.58H0.98C0.7145 1.58 0.5 1.7945 0.5 2.06V12.02C0.5 12.2855 0.7145 12.5 0.98 12.5H12.02C12.2855 12.5 12.5 12.2855 12.5 12.02V2.06C12.5 1.7945 12.2855 1.58 12.02 1.58ZM11.42 11.42H1.58V5.72H11.42V11.42ZM1.58 4.7V2.66H3.5V3.38C3.5 3.446 3.554 3.5 3.62 3.5H4.46C4.526 3.5 4.58 3.446 4.58 3.38V2.66H8.42V3.38C8.42 3.446 8.474 3.5 8.54 3.5H9.38C9.446 3.5 9.5 3.446 9.5 3.38V2.66H11.42V4.7H1.58Z" fill="#131313"/>
</svg>
