<svg width="13" height="13" viewBox="0 0 15 15" fill="none" xmlns="http://www.w3.org/2000/svg">
<path d="M12.0714 0.25H0.928571C0.691518 0.25 0.5 0.463281 0.5 0.727273V10.2727C0.5 10.5367 0.691518 10.75 0.928571 10.75H12.0714C12.3085 10.75 12.5 10.5367 12.5 10.2727V0.727273C12.5 0.463281 12.3085 0.25 12.0714 0.25ZM1.46429 1.32386H11.5357V3.11364H1.46429V1.32386ZM11.5357 9.67614H1.46429V4.42614H11.5357V9.67614ZM8.36161 8.72159H10.5714C10.6304 8.72159 10.6786 8.6679 10.6786 8.60227V7.52841C10.6786 7.46278 10.6304 7.40909 10.5714 7.40909H8.36161C8.30268 7.40909 8.25446 7.46278 8.25446 7.52841V8.60227C8.25446 8.6679 8.30268 8.72159 8.36161 8.72159Z" fill="#131313"/>
</svg>
