<svg width="12" height="12" viewBox="0 0 12 12" fill="none" xmlns="http://www.w3.org/2000/svg">
<path d="M10.416 2.06401H8.39995V1.29601C8.39995 1.24321 8.35675 1.20001 8.30395 1.20001H7.63195C7.57915 1.20001 7.53595 1.24321 7.53595 1.29601V2.06401H4.46395V1.29601C4.46395 1.24321 4.42075 1.20001 4.36795 1.20001H3.69595C3.64315 1.20001 3.59995 1.24321 3.59995 1.29601V2.06401H1.58395C1.37155 2.06401 1.19995 2.23561 1.19995 2.44801V10.416C1.19995 10.6284 1.37155 10.8 1.58395 10.8H10.416C10.6284 10.8 10.8 10.6284 10.8 10.416V2.44801C10.8 2.23561 10.6284 2.06401 10.416 2.06401ZM9.93595 9.93601H2.06395V5.37601H9.93595V9.93601ZM2.06395 4.56001V2.92801H3.59995V3.50401C3.59995 3.55681 3.64315 3.60001 3.69595 3.60001H4.36795C4.42075 3.60001 4.46395 3.55681 4.46395 3.50401V2.92801H7.53595V3.50401C7.53595 3.55681 7.57915 3.60001 7.63195 3.60001H8.30395C8.35675 3.60001 8.39995 3.55681 8.39995 3.50401V2.92801H9.93595V4.56001H2.06395Z" fill="#131313"/>
</svg>
