<svg width="18" height="19" viewBox="0 0 18 19" fill="none" xmlns="http://www.w3.org/2000/svg">
<g filter="url(#filter0_d_8_25)">
<path d="M13.4571 1.79999H4.54281C4.35317 1.79999 4.19995 1.97061 4.19995 2.18181V9.81817C4.19995 10.0294 4.35317 10.2 4.54281 10.2H13.4571C13.6467 10.2 13.8 10.0294 13.8 9.81817V2.18181C13.8 1.97061 13.6467 1.79999 13.4571 1.79999ZM4.97138 2.65908H13.0285V4.0909H4.97138V2.65908ZM13.0285 9.3409H4.97138V5.1409H13.0285V9.3409ZM10.4892 8.57726H12.2571C12.3042 8.57726 12.3428 8.53431 12.3428 8.48181V7.62272C12.3428 7.57022 12.3042 7.52726 12.2571 7.52726H10.4892C10.4421 7.52726 10.4035 7.57022 10.4035 7.62272V8.48181C10.4035 8.53431 10.4421 8.57726 10.4892 8.57726Z" fill="#131313"/>
</g>
<defs>
<filter id="filter0_d_8_25" x="-1" y="0" width="20" height="20" filterUnits="userSpaceOnUse" color-interpolation-filters="sRGB">
<feFlood flood-opacity="0" result="BackgroundImageFix"/>
<feColorMatrix in="SourceAlpha" type="matrix" values="0 0 0 0 0 0 0 0 0 0 0 0 0 0 0 0 0 0 127 0" result="hardAlpha"/>
<feOffset dy="4"/>
<feGaussianBlur stdDeviation="2"/>
<feComposite in2="hardAlpha" operator="out"/>
<feColorMatrix type="matrix" values="0 0 0 0 0 0 0 0 0 0 0 0 0 0 0 0 0 0 0.25 0"/>
<feBlend mode="normal" in2="BackgroundImageFix" result="effect1_dropShadow_8_25"/>
<feBlend mode="normal" in="SourceGraphic" in2="effect1_dropShadow_8_25" result="shape"/>
</filter>
</defs>
</svg>
