<svg width="44" height="44" viewBox="0 0 44 44" fill="none" xmlns="http://www.w3.org/2000/svg">
<path d="M22.0157 24.2933H19.7478V21.1918H22.0157C22.4169 21.157 22.8182 21.2964 23.1322 21.5926C23.4288 21.8888 23.5858 22.307 23.5683 22.7426C23.5858 23.1782 23.4288 23.5964 23.1322 23.8926C22.8356 24.1888 22.4344 24.3282 22.0157 24.2933ZM19.7478 17.0275H21.8936C22.4344 16.9752 22.9577 17.2365 23.2369 17.707C23.516 18.1949 23.516 18.8047 23.2369 19.2752C22.9577 19.7456 22.4344 20.0244 21.8936 19.9547H19.7478V17.0275ZM23.7428 20.7911L23.202 20.5297L23.7428 20.2683C24.4057 19.9024 24.8244 19.188 24.8244 18.404C24.8244 16.7661 23.7951 15.7903 22.068 15.7903H18.3871V25.5304H22.225C23.9347 25.5304 24.9639 24.5198 24.9639 22.8471C24.9988 21.9585 24.5104 21.1395 23.7428 20.7911ZM12.8047 24.1888V17.132H14.0956V22.9517H17.0788V24.1713H12.8047V24.1888ZM29.0461 24.1888C28.4006 24.2236 27.7726 23.9971 27.3016 23.5267C26.8305 23.0562 26.5689 22.4115 26.5863 21.7494V17.1494H27.8947V21.6797C27.8598 22.1327 28.0866 22.5683 28.4529 22.7948C28.8193 23.0388 29.2903 23.0388 29.6567 22.7948C30.023 22.5509 30.2498 22.1327 30.2149 21.6797V17.132H31.5058V21.732C31.5058 22.4115 31.2442 23.0562 30.7906 23.5092C30.3196 23.9797 29.6915 24.2236 29.0461 24.1888ZM21.9983 8.40251C17.0788 8.40251 12.6477 11.4343 10.7636 16.0691C8.87957 20.7039 9.92627 26.0532 13.3978 29.6077C16.8694 33.1622 22.1029 34.2251 26.6387 32.3084C31.1744 30.3918 34.14 25.8615 34.14 20.8259C34.14 13.9782 28.6972 8.40251 21.9983 8.40251ZM21.9983 32.744C17.2881 32.744 13.0315 29.8516 11.2347 25.391C9.43781 20.9305 10.4322 15.8078 13.7642 12.4101C17.0962 8.99493 22.1029 7.98433 26.4642 9.83129C30.808 11.6782 33.6516 16.0169 33.6516 20.8433C33.6341 27.3948 28.4181 32.7266 21.9983 32.744ZM21.9983 7.61843C16.7647 7.61843 12.0546 10.8419 10.0484 15.7729C8.0422 20.7039 9.15869 26.4016 12.8396 30.1827C16.538 33.9637 22.0855 35.0963 26.9178 33.0576C31.7501 31.019 34.8902 26.1925 34.8902 20.8433C34.9076 13.5426 29.1333 7.61843 21.9983 7.61843ZM21.9983 35.2705C16.2937 35.2705 11.13 31.7508 8.94935 26.3494C6.76871 20.9479 7.97242 14.7449 12.0022 10.6154C16.032 6.48586 22.1204 5.24874 27.3888 7.47903C32.6572 9.70932 36.1113 14.9888 36.0939 20.8259C36.0939 28.8062 29.7788 35.2531 21.9983 35.2705ZM29.4996 0.178324C26.9178 -0.43152 23.7777 0.718471 23.7777 0.718471C23.2194 0.92756 22.6263 1.03211 22.0157 1.03211C21.4051 1.04953 20.7946 0.962408 20.2189 0.753318C20.2189 0.753318 17.0613 -0.431521 14.4969 0.213172C14.4969 0.213172 11.9673 0.701047 12.5605 4.04648C12.5605 4.04648 12.7 1.45028 15.9099 1.45028C15.9099 1.45028 17.1136 1.39801 19.6432 2.58285C19.87 2.70482 20.1142 2.80937 20.3584 2.89649C20.5154 2.94876 20.6899 3.00103 20.8992 3.03588L21.0737 3.07073C21.1435 3.08815 21.2307 3.10558 21.3005 3.10558C21.7715 3.17527 22.2425 3.17527 22.6961 3.10558L22.9229 3.01845L23.1322 2.96618H23.2194C23.3415 2.93134 23.4636 2.89649 23.5858 2.84421C23.83 2.75709 24.0742 2.65255 24.3185 2.53058C26.8305 1.36317 28.0517 1.39801 28.0517 1.39801C31.2616 1.39801 31.4012 3.99421 31.4012 3.99421C32.0292 0.683623 29.4822 0.178324 29.4996 0.178324ZM0.0174676 21.6274C0.366369 18.9267 2.56445 16.3131 2.56445 16.3131C2.96569 15.8426 3.2797 15.3199 3.48904 14.7275C3.69838 14.1525 3.80305 13.5426 3.82049 12.9154C3.82049 12.9154 3.82049 9.44796 5.30332 7.20024C5.30332 7.20024 6.6466 4.95253 9.52503 6.72979C9.52503 6.72979 7.06528 5.91086 5.93135 9.01236C5.93135 9.01236 5.46033 10.1275 5.65223 13.0025C5.68712 13.2638 5.70456 13.5426 5.68712 13.8214C5.68712 14.0131 5.66967 14.2047 5.65223 14.379C5.65223 14.4487 5.65223 14.501 5.61734 14.5532L5.565 14.7972C5.46033 15.2676 5.28588 15.7206 5.05909 16.1388C5.0242 16.2085 4.98931 16.2608 4.95442 16.3305L4.83231 16.5222C4.81486 16.5396 4.79742 16.5744 4.77997 16.5919C4.71019 16.6964 4.62297 16.8009 4.53574 16.9055C4.36129 17.0972 4.18684 17.2888 3.99494 17.4631C2.02365 19.5017 1.62241 20.6691 1.62241 20.6691C0.488484 23.7532 2.86101 24.8335 2.86101 24.8335C-0.401215 24.2236 0.0174676 21.6274 0.0174676 21.6274ZM43.9965 21.6448C43.6476 18.9441 41.4321 16.3305 41.4321 16.3305C41.0483 15.86 40.7343 15.3373 40.5249 14.7449C40.2981 14.1699 40.1935 13.5601 40.1935 12.9328C40.1935 12.9328 40.1935 9.46538 38.7106 7.20024C38.7106 7.20024 37.3674 4.95253 34.4715 6.72979C34.4715 6.72979 36.9487 5.91086 38.0826 9.01236C38.0826 9.01236 38.5536 10.1449 38.3617 13.0199C38.3269 13.2813 38.3094 13.5601 38.3094 13.8388C38.3094 14.0131 38.3094 14.2047 38.3617 14.3964V14.5707C38.3617 14.6229 38.3966 14.7275 38.4141 14.8146C38.5187 15.285 38.6932 15.7381 38.92 16.1562L39.0247 16.3479L39.1468 16.5396L39.1991 16.6093C39.2689 16.7138 39.3561 16.8358 39.4433 16.9229C39.6178 17.1146 39.7922 17.3062 39.9841 17.4805C41.9729 19.4843 42.3567 20.6691 42.3567 20.6691C43.508 23.7706 41.1181 24.8509 41.1181 24.8509C44.4326 24.2236 43.9791 21.61 43.9791 21.61L43.9965 21.6448ZM3.6286 33.2667C5.46033 35.2705 8.79234 36.0546 8.79234 36.0546C9.9786 36.3508 11.0253 37.0652 11.758 38.0584C11.758 38.0584 13.7642 40.8811 16.2763 41.822C16.2763 41.822 18.6837 42.85 20.027 39.6614C20.027 39.6614 18.4569 41.822 15.7529 39.975C15.7529 39.975 14.7062 39.3303 13.2234 36.8735C13.1013 36.6296 12.9443 36.4031 12.7873 36.1766C12.6826 36.0198 12.5605 35.8804 12.4209 35.741L12.2988 35.619L12.1244 35.4622C11.7754 35.1311 11.3742 34.8698 10.9555 34.6607L10.7636 34.5735L10.5543 34.4864L10.4671 34.4516C10.345 34.3993 10.2228 34.3645 10.1007 34.347C9.83904 34.2773 9.57737 34.2425 9.29825 34.2251C6.54192 33.7895 5.53011 33.0576 5.53011 33.0576C2.80868 31.2107 4.15195 28.9107 4.15195 28.9107C1.77942 31.4024 3.64604 33.2667 3.6286 33.2667ZM40.333 33.2667C38.5013 35.2705 35.1867 36.0546 35.1867 36.0546C34.0005 36.3508 32.9363 37.0478 32.2036 38.0584C32.2036 38.0584 30.2149 40.8811 27.7028 41.822C27.7028 41.822 25.2954 42.85 23.9521 39.6614C23.9521 39.6614 25.5222 41.822 28.2262 39.975C28.2262 39.975 29.2729 39.3303 30.7382 36.8735C30.8604 36.6296 31.0174 36.4031 31.1744 36.1766C31.279 36.0372 31.4012 35.8804 31.5407 35.741C31.5756 35.6887 31.6279 35.6538 31.6628 35.619L31.8373 35.4622C32.1862 35.1485 32.5874 34.8698 33.0235 34.6607L33.2154 34.5735L33.4248 34.4864L33.512 34.4516C33.7388 34.3645 33.8784 34.347 33.8784 34.347C34.14 34.2773 34.4192 34.2425 34.6808 34.2076C37.4372 33.772 38.449 33.0402 38.449 33.0402C41.153 31.1933 39.8271 28.8933 39.8271 28.8933C42.1997 31.4024 40.333 33.2667 40.333 33.2667ZM22.1553 44L23.3066 36.2811H22.1553H21.0039L22.1553 44ZM43.665 27.8827L36.844 24.1888L36.4777 25.3736L36.1113 26.5585L43.665 27.8827ZM0.314033 27.8827L7.13506 24.1888L7.5014 25.3736L7.86775 26.5585L0.314033 27.8827ZM35.4484 1.6768L31.8024 8.73357L30.8255 8.00176L29.8485 7.26994L35.4484 1.6768ZM8.53066 1.6768L12.1767 8.73357L13.1536 8.00176L14.1305 7.26994L8.53066 1.6768Z" fill="#131313"/>
</svg>
